<svg width="503" height="457" viewBox="0 0 503 457" fill="none" xmlns="http://www.w3.org/2000/svg">
    <rect x="23" y="24" width="297" height="271" rx="15" fill="#4EF5E7" fill-opacity="0.05"/>
    <rect x="110" y="102" width="297" height="271" rx="15" fill="#4EF5E7" fill-opacity="0.05"/>
    <rect x="203" y="186" width="297" height="271" rx="15" fill="#4EF5E7" fill-opacity="0.05"/>
    <circle cx="3.92945" cy="3.92945" r="3.92945" transform="matrix(1 0 0 -1 61 303.81)" fill="#4EF5E7"/>
    <circle cx="3.92945" cy="3.92945" r="3.92945" transform="matrix(1 0 0 -1 71.8528 303.81)" fill="#4EF5E7"/>
    <circle cx="3.92945" cy="3.92945" r="3.92945" transform="matrix(1 0 0 -1 82.7055 303.81)" fill="#4EF5E7"/>
    <circle cx="3.92945" cy="3.92945" r="3.92945" transform="matrix(1 0 0 -1 92.4356 303.81)" fill="#4EF5E7"/>
    <circle cx="3.92945" cy="3.92945" r="3.92945" transform="matrix(1 0 0 -1 103.288 303.81)" fill="#4EF5E7"/>
    <circle cx="3.92945" cy="3.92945" r="3.92945" transform="matrix(1 0 0 -1 114.141 303.81)" fill="#4EF5E7"/>
    <circle cx="3.92945" cy="3.92945" r="3.92945" transform="matrix(1 0 0 -1 61 291.834)" fill="#4EF5E7"/>
    <circle cx="3.92945" cy="3.92945" r="3.92945" transform="matrix(1 0 0 -1 71.8528 291.834)" fill="#4EF5E7"/>
    <circle cx="3.92945" cy="3.92945" r="3.92945" transform="matrix(1 0 0 -1 82.7055 291.834)" fill="#4EF5E7"/>
    <circle cx="3.92945" cy="3.92945" r="3.92945" transform="matrix(1 0 0 -1 92.4356 291.834)" fill="#4EF5E7"/>
    <circle cx="3.92945" cy="3.92945" r="3.92945" transform="matrix(1 0 0 -1 103.288 291.834)" fill="#4EF5E7"/>
    <circle cx="3.92945" cy="3.92945" r="3.92945" transform="matrix(1 0 0 -1 114.141 291.834)" fill="#4EF5E7"/>
    <circle cx="3.92945" cy="3.92945" r="3.92945" transform="matrix(1 0 0 -1 61 279.859)" fill="#4EF5E7"/>
    <circle cx="3.92945" cy="3.92945" r="3.92945" transform="matrix(1 0 0 -1 71.8528 279.859)" fill="#4EF5E7"/>
    <circle cx="3.92945" cy="3.92945" r="3.92945" transform="matrix(1 0 0 -1 82.7055 279.859)" fill="#4EF5E7"/>
    <circle cx="3.92945" cy="3.92945" r="3.92945" transform="matrix(1 0 0 -1 92.4356 279.859)" fill="#4EF5E7"/>
    <circle cx="3.92945" cy="3.92945" r="3.92945" transform="matrix(1 0 0 -1 103.288 279.859)" fill="#4EF5E7"/>
    <circle cx="3.92945" cy="3.92945" r="3.92945" transform="matrix(1 0 0 -1 114.141 279.859)" fill="#4EF5E7"/>
    <circle cx="3.92945" cy="3.92945" r="3.92945" transform="matrix(1 0 0 -1 0 363.81)" fill="#4EF5E7"/>
    <circle cx="3.92945" cy="3.92945" r="3.92945" transform="matrix(1 0 0 -1 10.8528 363.81)" fill="#4EF5E7"/>
    <circle cx="3.92945" cy="3.92945" r="3.92945" transform="matrix(1 0 0 -1 21.7055 363.81)" fill="#4EF5E7"/>
    <circle cx="3.92945" cy="3.92945" r="3.92945" transform="matrix(1 0 0 -1 31.4356 363.81)" fill="#4EF5E7"/>
    <circle cx="3.92945" cy="3.92945" r="3.92945" transform="matrix(1 0 0 -1 42.2883 363.81)" fill="#4EF5E7"/>
    <circle cx="3.92945" cy="3.92945" r="3.92945" transform="matrix(1 0 0 -1 53.1411 363.81)" fill="#4EF5E7"/>
    <circle cx="3.92945" cy="3.92945" r="3.92945" transform="matrix(1 0 0 -1 0 351.834)" fill="#4EF5E7"/>
    <circle cx="3.92945" cy="3.92945" r="3.92945" transform="matrix(1 0 0 -1 10.8528 351.834)" fill="#4EF5E7"/>
    <circle cx="3.92945" cy="3.92945" r="3.92945" transform="matrix(1 0 0 -1 21.7055 351.834)" fill="#4EF5E7"/>
    <circle cx="3.92945" cy="3.92945" r="3.92945" transform="matrix(1 0 0 -1 31.4356 351.834)" fill="#4EF5E7"/>
    <circle cx="3.92945" cy="3.92945" r="3.92945" transform="matrix(1 0 0 -1 42.2883 351.834)" fill="#4EF5E7"/>
    <circle cx="3.92945" cy="3.92945" r="3.92945" transform="matrix(1 0 0 -1 53.1411 351.834)" fill="#4EF5E7"/>
    <circle cx="3.92945" cy="3.92945" r="3.92945" transform="matrix(1 0 0 -1 0 339.859)" fill="#4EF5E7"/>
    <circle cx="3.92945" cy="3.92945" r="3.92945" transform="matrix(1 0 0 -1 10.8528 339.859)" fill="#4EF5E7"/>
    <circle cx="3.92945" cy="3.92945" r="3.92945" transform="matrix(1 0 0 -1 21.7055 339.859)" fill="#4EF5E7"/>
    <circle cx="3.92945" cy="3.92945" r="3.92945" transform="matrix(1 0 0 -1 31.4356 339.859)" fill="#4EF5E7"/>
    <circle cx="3.92945" cy="3.92945" r="3.92945" transform="matrix(1 0 0 -1 42.2883 339.859)" fill="#4EF5E7"/>
    <circle cx="3.92945" cy="3.92945" r="3.92945" transform="matrix(1 0 0 -1 53.1411 339.859)" fill="#4EF5E7"/>
    <circle cx="3.92945" cy="3.92945" r="3.92945" transform="matrix(1 0 0 -1 122 363.81)" fill="#4EF5E7"/>
    <circle cx="3.92945" cy="3.92945" r="3.92945" transform="matrix(1 0 0 -1 132.853 363.81)" fill="#4EF5E7"/>
    <circle cx="3.92945" cy="3.92945" r="3.92945" transform="matrix(1 0 0 -1 143.706 363.81)" fill="#4EF5E7"/>
    <circle cx="3.92945" cy="3.92945" r="3.92945" transform="matrix(1 0 0 -1 153.436 363.81)" fill="#4EF5E7"/>
    <circle cx="3.92945" cy="3.92945" r="3.92945" transform="matrix(1 0 0 -1 164.288 363.81)" fill="#4EF5E7"/>
    <circle cx="3.92945" cy="3.92945" r="3.92945" transform="matrix(1 0 0 -1 175.141 363.81)" fill="#4EF5E7"/>
    <circle cx="3.92945" cy="3.92945" r="3.92945" transform="matrix(1 0 0 -1 122 351.834)" fill="#4EF5E7"/>
    <circle cx="3.92945" cy="3.92945" r="3.92945" transform="matrix(1 0 0 -1 132.853 351.834)" fill="#4EF5E7"/>
    <circle cx="3.92945" cy="3.92945" r="3.92945" transform="matrix(1 0 0 -1 143.706 351.834)" fill="#4EF5E7"/>
    <circle cx="3.92945" cy="3.92945" r="3.92945" transform="matrix(1 0 0 -1 153.436 351.834)" fill="#4EF5E7"/>
    <circle cx="3.92945" cy="3.92945" r="3.92945" transform="matrix(1 0 0 -1 164.288 351.834)" fill="#4EF5E7"/>
    <circle cx="3.92945" cy="3.92945" r="3.92945" transform="matrix(1 0 0 -1 175.141 351.834)" fill="#4EF5E7"/>
    <circle cx="3.92945" cy="3.92945" r="3.92945" transform="matrix(1 0 0 -1 122 339.859)" fill="#4EF5E7"/>
    <circle cx="3.92945" cy="3.92945" r="3.92945" transform="matrix(1 0 0 -1 132.853 339.859)" fill="#4EF5E7"/>
    <circle cx="3.92945" cy="3.92945" r="3.92945" transform="matrix(1 0 0 -1 143.706 339.859)" fill="#4EF5E7"/>
    <circle cx="3.92945" cy="3.92945" r="3.92945" transform="matrix(1 0 0 -1 153.436 339.859)" fill="#4EF5E7"/>
    <circle cx="3.92945" cy="3.92945" r="3.92945" transform="matrix(1 0 0 -1 164.288 339.859)" fill="#4EF5E7"/>
    <circle cx="3.92945" cy="3.92945" r="3.92945" transform="matrix(1 0 0 -1 175.141 339.859)" fill="#4EF5E7"/>
    <circle cx="3.92945" cy="3.92945" r="3.92945" transform="matrix(1 0 0 -1 60 422.81)" fill="#4EF5E7"/>
    <circle cx="3.92945" cy="3.92945" r="3.92945" transform="matrix(1 0 0 -1 70.8528 422.81)" fill="#4EF5E7"/>
    <circle cx="3.92945" cy="3.92945" r="3.92945" transform="matrix(1 0 0 -1 81.7055 422.81)" fill="#4EF5E7"/>
    <circle cx="3.92945" cy="3.92945" r="3.92945" transform="matrix(1 0 0 -1 91.4356 422.81)" fill="#4EF5E7"/>
    <circle cx="3.92945" cy="3.92945" r="3.92945" transform="matrix(1 0 0 -1 102.288 422.81)" fill="#4EF5E7"/>
    <circle cx="3.92945" cy="3.92945" r="3.92945" transform="matrix(1 0 0 -1 113.141 422.81)" fill="#4EF5E7"/>
    <circle cx="3.92945" cy="3.92945" r="3.92945" transform="matrix(1 0 0 -1 60 410.834)" fill="#4EF5E7"/>
    <circle cx="3.92945" cy="3.92945" r="3.92945" transform="matrix(1 0 0 -1 70.8528 410.834)" fill="#4EF5E7"/>
    <circle cx="3.92945" cy="3.92945" r="3.92945" transform="matrix(1 0 0 -1 81.7055 410.834)" fill="#4EF5E7"/>
    <circle cx="3.92945" cy="3.92945" r="3.92945" transform="matrix(1 0 0 -1 91.4356 410.834)" fill="#4EF5E7"/>
    <circle cx="3.92945" cy="3.92945" r="3.92945" transform="matrix(1 0 0 -1 102.288 410.834)" fill="#4EF5E7"/>
    <circle cx="3.92945" cy="3.92945" r="3.92945" transform="matrix(1 0 0 -1 113.141 410.834)" fill="#4EF5E7"/>
    <circle cx="3.92945" cy="3.92945" r="3.92945" transform="matrix(1 0 0 -1 60 398.859)" fill="#4EF5E7"/>
    <circle cx="3.92945" cy="3.92945" r="3.92945" transform="matrix(1 0 0 -1 70.8528 398.859)" fill="#4EF5E7"/>
    <circle cx="3.92945" cy="3.92945" r="3.92945" transform="matrix(1 0 0 -1 81.7055 398.859)" fill="#4EF5E7"/>
    <circle cx="3.92945" cy="3.92945" r="3.92945" transform="matrix(1 0 0 -1 91.4356 398.859)" fill="#4EF5E7"/>
    <circle cx="3.92945" cy="3.92945" r="3.92945" transform="matrix(1 0 0 -1 102.288 398.859)" fill="#4EF5E7"/>
    <circle cx="3.92945" cy="3.92945" r="3.92945" transform="matrix(1 0 0 -1 113.141 398.859)" fill="#4EF5E7"/>
    <circle cx="3.92945" cy="3.92945" r="3.92945" transform="matrix(1 0 0 -1 381 31.8098)" fill="#4EF5E7"/>
    <circle cx="3.92945" cy="3.92945" r="3.92945" transform="matrix(1 0 0 -1 391.853 31.8098)" fill="#4EF5E7"/>
    <circle cx="3.92945" cy="3.92945" r="3.92945" transform="matrix(1 0 0 -1 402.706 31.8098)" fill="#4EF5E7"/>
    <circle cx="3.92945" cy="3.92945" r="3.92945" transform="matrix(1 0 0 -1 412.436 31.8098)" fill="#4EF5E7"/>
    <circle cx="3.92945" cy="3.92945" r="3.92945" transform="matrix(1 0 0 -1 423.288 31.8098)" fill="#4EF5E7"/>
    <circle cx="3.92945" cy="3.92945" r="3.92945" transform="matrix(1 0 0 -1 434.141 31.8098)" fill="#4EF5E7"/>
    <circle cx="3.92945" cy="3.92945" r="3.92945" transform="matrix(1 0 0 -1 381 19.8344)" fill="#4EF5E7"/>
    <circle cx="3.92945" cy="3.92945" r="3.92945" transform="matrix(1 0 0 -1 391.853 19.8344)" fill="#4EF5E7"/>
    <circle cx="3.92945" cy="3.92945" r="3.92945" transform="matrix(1 0 0 -1 402.706 19.8344)" fill="#4EF5E7"/>
    <circle cx="3.92945" cy="3.92945" r="3.92945" transform="matrix(1 0 0 -1 412.436 19.8344)" fill="#4EF5E7"/>
    <circle cx="3.92945" cy="3.92945" r="3.92945" transform="matrix(1 0 0 -1 423.288 19.8344)" fill="#4EF5E7"/>
    <circle cx="3.92945" cy="3.92945" r="3.92945" transform="matrix(1 0 0 -1 434.141 19.8344)" fill="#4EF5E7"/>
    <circle cx="3.92945" cy="3.92945" r="3.92945" transform="matrix(1 0 0 -1 381 7.85889)" fill="#4EF5E7"/>
    <circle cx="3.92945" cy="3.92945" r="3.92945" transform="matrix(1 0 0 -1 391.853 7.85889)" fill="#4EF5E7"/>
    <circle cx="3.92945" cy="3.92945" r="3.92945" transform="matrix(1 0 0 -1 402.706 7.85889)" fill="#4EF5E7"/>
    <circle cx="3.92945" cy="3.92945" r="3.92945" transform="matrix(1 0 0 -1 412.436 7.85889)" fill="#4EF5E7"/>
    <circle cx="3.92945" cy="3.92945" r="3.92945" transform="matrix(1 0 0 -1 423.288 7.85889)" fill="#4EF5E7"/>
    <circle cx="3.92945" cy="3.92945" r="3.92945" transform="matrix(1 0 0 -1 434.141 7.85889)" fill="#4EF5E7"/>
    <circle cx="3.92945" cy="3.92945" r="3.92945" transform="matrix(1 0 0 -1 320 91.8098)" fill="#4EF5E7"/>
    <circle cx="3.92945" cy="3.92945" r="3.92945" transform="matrix(1 0 0 -1 330.853 91.8098)" fill="#4EF5E7"/>
    <circle cx="3.92945" cy="3.92945" r="3.92945" transform="matrix(1 0 0 -1 341.706 91.8098)" fill="#4EF5E7"/>
    <circle cx="3.92945" cy="3.92945" r="3.92945" transform="matrix(1 0 0 -1 351.436 91.8098)" fill="#4EF5E7"/>
    <circle cx="3.92945" cy="3.92945" r="3.92945" transform="matrix(1 0 0 -1 362.288 91.8098)" fill="#4EF5E7"/>
    <circle cx="3.92945" cy="3.92945" r="3.92945" transform="matrix(1 0 0 -1 373.141 91.8098)" fill="#4EF5E7"/>
    <circle cx="3.92945" cy="3.92945" r="3.92945" transform="matrix(1 0 0 -1 320 79.8344)" fill="#4EF5E7"/>
    <circle cx="3.92945" cy="3.92945" r="3.92945" transform="matrix(1 0 0 -1 330.853 79.8344)" fill="#4EF5E7"/>
    <circle cx="3.92945" cy="3.92945" r="3.92945" transform="matrix(1 0 0 -1 341.706 79.8344)" fill="#4EF5E7"/>
    <circle cx="3.92945" cy="3.92945" r="3.92945" transform="matrix(1 0 0 -1 351.436 79.8344)" fill="#4EF5E7"/>
    <circle cx="3.92945" cy="3.92945" r="3.92945" transform="matrix(1 0 0 -1 362.288 79.8344)" fill="#4EF5E7"/>
    <circle cx="3.92945" cy="3.92945" r="3.92945" transform="matrix(1 0 0 -1 373.141 79.8344)" fill="#4EF5E7"/>
    <circle cx="3.92945" cy="3.92945" r="3.92945" transform="matrix(1 0 0 -1 320 67.8589)" fill="#4EF5E7"/>
    <circle cx="3.92945" cy="3.92945" r="3.92945" transform="matrix(1 0 0 -1 330.853 67.8589)" fill="#4EF5E7"/>
    <circle cx="3.92945" cy="3.92945" r="3.92945" transform="matrix(1 0 0 -1 341.706 67.8589)" fill="#4EF5E7"/>
    <circle cx="3.92945" cy="3.92945" r="3.92945" transform="matrix(1 0 0 -1 351.436 67.8589)" fill="#4EF5E7"/>
    <circle cx="3.92945" cy="3.92945" r="3.92945" transform="matrix(1 0 0 -1 362.288 67.8589)" fill="#4EF5E7"/>
    <circle cx="3.92945" cy="3.92945" r="3.92945" transform="matrix(1 0 0 -1 373.141 67.8589)" fill="#4EF5E7"/>
    <circle cx="3.92945" cy="3.92945" r="3.92945" transform="matrix(1 0 0 -1 442 91.8098)" fill="#4EF5E7"/>
    <circle cx="3.92945" cy="3.92945" r="3.92945" transform="matrix(1 0 0 -1 452.853 91.8098)" fill="#4EF5E7"/>
    <circle cx="3.92945" cy="3.92945" r="3.92945" transform="matrix(1 0 0 -1 463.706 91.8098)" fill="#4EF5E7"/>
    <circle cx="3.92945" cy="3.92945" r="3.92945" transform="matrix(1 0 0 -1 473.436 91.8098)" fill="#4EF5E7"/>
    <circle cx="3.92945" cy="3.92945" r="3.92945" transform="matrix(1 0 0 -1 484.288 91.8098)" fill="#4EF5E7"/>
    <circle cx="3.92945" cy="3.92945" r="3.92945" transform="matrix(1 0 0 -1 495.141 91.8098)" fill="#4EF5E7"/>
    <circle cx="3.92945" cy="3.92945" r="3.92945" transform="matrix(1 0 0 -1 442 79.8344)" fill="#4EF5E7"/>
    <circle cx="3.92945" cy="3.92945" r="3.92945" transform="matrix(1 0 0 -1 452.853 79.8344)" fill="#4EF5E7"/>
    <circle cx="3.92945" cy="3.92945" r="3.92945" transform="matrix(1 0 0 -1 463.706 79.8344)" fill="#4EF5E7"/>
    <circle cx="3.92945" cy="3.92945" r="3.92945" transform="matrix(1 0 0 -1 473.436 79.8344)" fill="#4EF5E7"/>
    <circle cx="3.92945" cy="3.92945" r="3.92945" transform="matrix(1 0 0 -1 484.288 79.8344)" fill="#4EF5E7"/>
    <circle cx="3.92945" cy="3.92945" r="3.92945" transform="matrix(1 0 0 -1 495.141 79.8344)" fill="#4EF5E7"/>
    <circle cx="3.92945" cy="3.92945" r="3.92945" transform="matrix(1 0 0 -1 442 67.8589)" fill="#4EF5E7"/>
    <circle cx="3.92945" cy="3.92945" r="3.92945" transform="matrix(1 0 0 -1 452.853 67.8589)" fill="#4EF5E7"/>
    <circle cx="3.92945" cy="3.92945" r="3.92945" transform="matrix(1 0 0 -1 463.706 67.8589)" fill="#4EF5E7"/>
    <circle cx="3.92945" cy="3.92945" r="3.92945" transform="matrix(1 0 0 -1 473.436 67.8589)" fill="#4EF5E7"/>
    <circle cx="3.92945" cy="3.92945" r="3.92945" transform="matrix(1 0 0 -1 484.288 67.8589)" fill="#4EF5E7"/>
    <circle cx="3.92945" cy="3.92945" r="3.92945" transform="matrix(1 0 0 -1 495.141 67.8589)" fill="#4EF5E7"/>
    <circle cx="3.92945" cy="3.92945" r="3.92945" transform="matrix(1 0 0 -1 380 150.81)" fill="#4EF5E7"/>
    <circle cx="3.92945" cy="3.92945" r="3.92945" transform="matrix(1 0 0 -1 390.853 150.81)" fill="#4EF5E7"/>
    <circle cx="3.92945" cy="3.92945" r="3.92945" transform="matrix(1 0 0 -1 401.706 150.81)" fill="#4EF5E7"/>
    <circle cx="3.92945" cy="3.92945" r="3.92945" transform="matrix(1 0 0 -1 411.436 150.81)" fill="#4EF5E7"/>
    <circle cx="3.92945" cy="3.92945" r="3.92945" transform="matrix(1 0 0 -1 422.288 150.81)" fill="#4EF5E7"/>
    <circle cx="3.92945" cy="3.92945" r="3.92945" transform="matrix(1 0 0 -1 433.141 150.81)" fill="#4EF5E7"/>
    <circle cx="3.92945" cy="3.92945" r="3.92945" transform="matrix(1 0 0 -1 380 138.834)" fill="#4EF5E7"/>
    <circle cx="3.92945" cy="3.92945" r="3.92945" transform="matrix(1 0 0 -1 390.853 138.834)" fill="#4EF5E7"/>
    <circle cx="3.92945" cy="3.92945" r="3.92945" transform="matrix(1 0 0 -1 401.706 138.834)" fill="#4EF5E7"/>
    <circle cx="3.92945" cy="3.92945" r="3.92945" transform="matrix(1 0 0 -1 411.436 138.834)" fill="#4EF5E7"/>
    <circle cx="3.92945" cy="3.92945" r="3.92945" transform="matrix(1 0 0 -1 422.288 138.834)" fill="#4EF5E7"/>
    <circle cx="3.92945" cy="3.92945" r="3.92945" transform="matrix(1 0 0 -1 433.141 138.834)" fill="#4EF5E7"/>
    <circle cx="3.92945" cy="3.92945" r="3.92945" transform="matrix(1 0 0 -1 380 126.859)" fill="#4EF5E7"/>
    <circle cx="3.92945" cy="3.92945" r="3.92945" transform="matrix(1 0 0 -1 390.853 126.859)" fill="#4EF5E7"/>
    <circle cx="3.92945" cy="3.92945" r="3.92945" transform="matrix(1 0 0 -1 401.706 126.859)" fill="#4EF5E7"/>
    <circle cx="3.92945" cy="3.92945" r="3.92945" transform="matrix(1 0 0 -1 411.436 126.859)" fill="#4EF5E7"/>
    <circle cx="3.92945" cy="3.92945" r="3.92945" transform="matrix(1 0 0 -1 422.288 126.859)" fill="#4EF5E7"/>
    <circle cx="3.92945" cy="3.92945" r="3.92945" transform="matrix(1 0 0 -1 433.141 126.859)" fill="#4EF5E7"/>
</svg>
