<svg width="36" height="45" viewBox="0 0 36 45" fill="none" xmlns="http://www.w3.org/2000/svg">
<path d="M35.9688 29.041V31.2969L19.3281 24.7344L22.2871 23.6211L35.9688 29.041ZM35.9688 33.5527V35.8379L13.5273 26.9609L16.4277 25.8477L35.9688 33.5527ZM35.9688 38.123V40.3789L7.96094 29.3047L10.6562 28.1035L35.9688 38.123ZM35.9688 5.16406V7.41992L0.109375 21.6289V19.373L35.9688 5.16406ZM35.9688 0.623047V2.9082L0.109375 17.0879V14.832L35.9688 0.623047ZM35.9688 9.70508V11.9902L0.109375 26.1699V23.9141L35.9688 9.70508ZM35.9688 14.2461V16.502L2.95117 29.5684L35.9688 42.6348V44.8906L0.109375 30.7109V28.4258L35.9688 14.2461Z" fill="#4EF5E7"/>
</svg>
