<svg width="86" height="69" viewBox="0 0 86 69" fill="none" xmlns="http://www.w3.org/2000/svg">
<path d="M83.65 10.62C76.33 10.98 70.57 13.02 66.37 16.74C62.29 20.46 60.13 25.08 59.89 30.6C61.09 30 62.29 29.58 63.49 29.34C64.81 28.98 66.07 28.8 67.27 28.8C72.79 28.8 77.11 30.66 80.23 34.38C83.47 38.1 85.09 42.6 85.09 47.88C85.09 53.76 83.35 58.62 79.87 62.46C76.51 66.18 71.83 68.04 65.83 68.04C60.07 68.04 55.21 65.94 51.25 61.74C47.41 57.54 45.49 51.3 45.49 43.02C45.49 32.94 47.11 24.78 50.35 18.54C53.59 12.3 58.09 7.73999 63.85 4.85999C69.61 1.97999 76.21 0.479996 83.65 0.359998V10.62ZM38.65 10.62C31.33 10.98 25.57 13.02 21.37 16.74C17.29 20.46 15.13 25.08 14.89 30.6C16.09 30 17.29 29.58 18.49 29.34C19.81 28.98 21.07 28.8 22.27 28.8C27.79 28.8 32.11 30.66 35.23 34.38C38.47 38.1 40.09 42.6 40.09 47.88C40.09 53.76 38.35 58.62 34.87 62.46C31.51 66.18 26.83 68.04 20.83 68.04C15.07 68.04 10.21 65.94 6.25004 61.74C2.41004 57.54 0.49004 51.3 0.49004 43.02C0.49004 32.94 2.11004 24.78 5.35004 18.54C8.59004 12.3 13.09 7.73999 18.85 4.85999C24.61 1.97999 31.21 0.479996 38.65 0.359998V10.62Z" fill="url(#paint0_linear_89_10)"/>
<defs>
<linearGradient id="paint0_linear_89_10" x1="36.7156" y1="-51" x2="99.6925" y2="84.3363" gradientUnits="userSpaceOnUse">
<stop stop-color="#4EF5E7"/>
<stop offset="0.9999" stop-color="#13756D"/>
<stop offset="1" stop-color="#001412"/>
</linearGradient>
</defs>
</svg>
