<svg width="37" height="45" viewBox="0 0 37 45" fill="none" xmlns="http://www.w3.org/2000/svg">
<path d="M0.34375 31.2676V29.0117L33.3613 15.9453L0.34375 2.87891V0.623047L36.2031 14.8027V17.0879L0.34375 31.2676ZM0.34375 35.8086V33.5234L36.2031 19.3438V21.5996L0.34375 35.8086ZM0.34375 44.8906V42.6055L36.2031 28.4258V30.6816L0.34375 44.8906ZM0.34375 40.3496V38.0938L36.2031 23.8848V26.1406L0.34375 40.3496ZM0.34375 7.39062V5.13477L28.3516 16.209L25.6562 17.4102L0.34375 7.39062ZM0.34375 11.9609V9.67578L22.7852 18.5527L19.8848 19.666L0.34375 11.9609ZM0.34375 16.4727V14.2168L16.9844 20.7793L14.0254 21.8926L0.34375 16.4727Z" fill="#4EF5E7"/>
</svg>
