<svg width="183" height="151" viewBox="0 0 183 151" fill="none" xmlns="http://www.w3.org/2000/svg">
<circle cx="3.92945" cy="3.92945" r="3.92945" transform="matrix(1 0 0 -1 61 31.8098)" fill="#4EF5E7"/>
<circle cx="3.92945" cy="3.92945" r="3.92945" transform="matrix(1 0 0 -1 71.8528 31.8098)" fill="#4EF5E7"/>
<circle cx="3.92945" cy="3.92945" r="3.92945" transform="matrix(1 0 0 -1 82.7055 31.8098)" fill="#4EF5E7"/>
<circle cx="3.92945" cy="3.92945" r="3.92945" transform="matrix(1 0 0 -1 92.4356 31.8098)" fill="#4EF5E7"/>
<circle cx="3.92945" cy="3.92945" r="3.92945" transform="matrix(1 0 0 -1 103.288 31.8098)" fill="#4EF5E7"/>
<circle cx="3.92945" cy="3.92945" r="3.92945" transform="matrix(1 0 0 -1 114.141 31.8098)" fill="#4EF5E7"/>
<circle cx="3.92945" cy="3.92945" r="3.92945" transform="matrix(1 0 0 -1 61 19.8344)" fill="#4EF5E7"/>
<circle cx="3.92945" cy="3.92945" r="3.92945" transform="matrix(1 0 0 -1 71.8528 19.8344)" fill="#4EF5E7"/>
<circle cx="3.92945" cy="3.92945" r="3.92945" transform="matrix(1 0 0 -1 82.7055 19.8344)" fill="#4EF5E7"/>
<circle cx="3.92945" cy="3.92945" r="3.92945" transform="matrix(1 0 0 -1 92.4356 19.8344)" fill="#4EF5E7"/>
<circle cx="3.92945" cy="3.92945" r="3.92945" transform="matrix(1 0 0 -1 103.288 19.8344)" fill="#4EF5E7"/>
<circle cx="3.92945" cy="3.92945" r="3.92945" transform="matrix(1 0 0 -1 114.141 19.8344)" fill="#4EF5E7"/>
<circle cx="3.92945" cy="3.92945" r="3.92945" transform="matrix(1 0 0 -1 61 7.85889)" fill="#4EF5E7"/>
<circle cx="3.92945" cy="3.92945" r="3.92945" transform="matrix(1 0 0 -1 71.8528 7.85889)" fill="#4EF5E7"/>
<circle cx="3.92945" cy="3.92945" r="3.92945" transform="matrix(1 0 0 -1 82.7055 7.85889)" fill="#4EF5E7"/>
<circle cx="3.92945" cy="3.92945" r="3.92945" transform="matrix(1 0 0 -1 92.4356 7.85889)" fill="#4EF5E7"/>
<circle cx="3.92945" cy="3.92945" r="3.92945" transform="matrix(1 0 0 -1 103.288 7.85889)" fill="#4EF5E7"/>
<circle cx="3.92945" cy="3.92945" r="3.92945" transform="matrix(1 0 0 -1 114.141 7.85889)" fill="#4EF5E7"/>
<circle cx="3.92945" cy="3.92945" r="3.92945" transform="matrix(1 0 0 -1 0 91.8098)" fill="#4EF5E7"/>
<circle cx="3.92945" cy="3.92945" r="3.92945" transform="matrix(1 0 0 -1 10.8528 91.8098)" fill="#4EF5E7"/>
<circle cx="3.92945" cy="3.92945" r="3.92945" transform="matrix(1 0 0 -1 21.7055 91.8098)" fill="#4EF5E7"/>
<circle cx="3.92945" cy="3.92945" r="3.92945" transform="matrix(1 0 0 -1 31.4356 91.8098)" fill="#4EF5E7"/>
<circle cx="3.92945" cy="3.92945" r="3.92945" transform="matrix(1 0 0 -1 42.2883 91.8098)" fill="#4EF5E7"/>
<circle cx="3.92945" cy="3.92945" r="3.92945" transform="matrix(1 0 0 -1 53.1411 91.8098)" fill="#4EF5E7"/>
<circle cx="3.92945" cy="3.92945" r="3.92945" transform="matrix(1 0 0 -1 0 79.8344)" fill="#4EF5E7"/>
<circle cx="3.92945" cy="3.92945" r="3.92945" transform="matrix(1 0 0 -1 10.8528 79.8344)" fill="#4EF5E7"/>
<circle cx="3.92945" cy="3.92945" r="3.92945" transform="matrix(1 0 0 -1 21.7055 79.8344)" fill="#4EF5E7"/>
<circle cx="3.92945" cy="3.92945" r="3.92945" transform="matrix(1 0 0 -1 31.4356 79.8344)" fill="#4EF5E7"/>
<circle cx="3.92945" cy="3.92945" r="3.92945" transform="matrix(1 0 0 -1 42.2883 79.8344)" fill="#4EF5E7"/>
<circle cx="3.92945" cy="3.92945" r="3.92945" transform="matrix(1 0 0 -1 53.1411 79.8344)" fill="#4EF5E7"/>
<circle cx="3.92945" cy="3.92945" r="3.92945" transform="matrix(1 0 0 -1 0 67.8589)" fill="#4EF5E7"/>
<circle cx="3.92945" cy="3.92945" r="3.92945" transform="matrix(1 0 0 -1 10.8528 67.8589)" fill="#4EF5E7"/>
<circle cx="3.92945" cy="3.92945" r="3.92945" transform="matrix(1 0 0 -1 21.7055 67.8589)" fill="#4EF5E7"/>
<circle cx="3.92945" cy="3.92945" r="3.92945" transform="matrix(1 0 0 -1 31.4356 67.8589)" fill="#4EF5E7"/>
<circle cx="3.92945" cy="3.92945" r="3.92945" transform="matrix(1 0 0 -1 42.2883 67.8589)" fill="#4EF5E7"/>
<circle cx="3.92945" cy="3.92945" r="3.92945" transform="matrix(1 0 0 -1 53.1411 67.8589)" fill="#4EF5E7"/>
<circle cx="3.92945" cy="3.92945" r="3.92945" transform="matrix(1 0 0 -1 122 91.8098)" fill="#4EF5E7"/>
<circle cx="3.92945" cy="3.92945" r="3.92945" transform="matrix(1 0 0 -1 132.853 91.8098)" fill="#4EF5E7"/>
<circle cx="3.92945" cy="3.92945" r="3.92945" transform="matrix(1 0 0 -1 143.706 91.8098)" fill="#4EF5E7"/>
<circle cx="3.92945" cy="3.92945" r="3.92945" transform="matrix(1 0 0 -1 153.436 91.8098)" fill="#4EF5E7"/>
<circle cx="3.92945" cy="3.92945" r="3.92945" transform="matrix(1 0 0 -1 164.288 91.8098)" fill="#4EF5E7"/>
<circle cx="3.92945" cy="3.92945" r="3.92945" transform="matrix(1 0 0 -1 175.141 91.8098)" fill="#4EF5E7"/>
<circle cx="3.92945" cy="3.92945" r="3.92945" transform="matrix(1 0 0 -1 122 79.8344)" fill="#4EF5E7"/>
<circle cx="3.92945" cy="3.92945" r="3.92945" transform="matrix(1 0 0 -1 132.853 79.8344)" fill="#4EF5E7"/>
<circle cx="3.92945" cy="3.92945" r="3.92945" transform="matrix(1 0 0 -1 143.706 79.8344)" fill="#4EF5E7"/>
<circle cx="3.92945" cy="3.92945" r="3.92945" transform="matrix(1 0 0 -1 153.436 79.8344)" fill="#4EF5E7"/>
<circle cx="3.92945" cy="3.92945" r="3.92945" transform="matrix(1 0 0 -1 164.288 79.8344)" fill="#4EF5E7"/>
<circle cx="3.92945" cy="3.92945" r="3.92945" transform="matrix(1 0 0 -1 175.141 79.8344)" fill="#4EF5E7"/>
<circle cx="3.92945" cy="3.92945" r="3.92945" transform="matrix(1 0 0 -1 122 67.8589)" fill="#4EF5E7"/>
<circle cx="3.92945" cy="3.92945" r="3.92945" transform="matrix(1 0 0 -1 132.853 67.8589)" fill="#4EF5E7"/>
<circle cx="3.92945" cy="3.92945" r="3.92945" transform="matrix(1 0 0 -1 143.706 67.8589)" fill="#4EF5E7"/>
<circle cx="3.92945" cy="3.92945" r="3.92945" transform="matrix(1 0 0 -1 153.436 67.8589)" fill="#4EF5E7"/>
<circle cx="3.92945" cy="3.92945" r="3.92945" transform="matrix(1 0 0 -1 164.288 67.8589)" fill="#4EF5E7"/>
<circle cx="3.92945" cy="3.92945" r="3.92945" transform="matrix(1 0 0 -1 175.141 67.8589)" fill="#4EF5E7"/>
<circle cx="3.92945" cy="3.92945" r="3.92945" transform="matrix(1 0 0 -1 60 150.81)" fill="#4EF5E7"/>
<circle cx="3.92945" cy="3.92945" r="3.92945" transform="matrix(1 0 0 -1 70.8528 150.81)" fill="#4EF5E7"/>
<circle cx="3.92945" cy="3.92945" r="3.92945" transform="matrix(1 0 0 -1 81.7055 150.81)" fill="#4EF5E7"/>
<circle cx="3.92945" cy="3.92945" r="3.92945" transform="matrix(1 0 0 -1 91.4356 150.81)" fill="#4EF5E7"/>
<circle cx="3.92945" cy="3.92945" r="3.92945" transform="matrix(1 0 0 -1 102.288 150.81)" fill="#4EF5E7"/>
<circle cx="3.92945" cy="3.92945" r="3.92945" transform="matrix(1 0 0 -1 113.141 150.81)" fill="#4EF5E7"/>
<circle cx="3.92945" cy="3.92945" r="3.92945" transform="matrix(1 0 0 -1 60 138.834)" fill="#4EF5E7"/>
<circle cx="3.92945" cy="3.92945" r="3.92945" transform="matrix(1 0 0 -1 70.8528 138.834)" fill="#4EF5E7"/>
<circle cx="3.92945" cy="3.92945" r="3.92945" transform="matrix(1 0 0 -1 81.7055 138.834)" fill="#4EF5E7"/>
<circle cx="3.92945" cy="3.92945" r="3.92945" transform="matrix(1 0 0 -1 91.4356 138.834)" fill="#4EF5E7"/>
<circle cx="3.92945" cy="3.92945" r="3.92945" transform="matrix(1 0 0 -1 102.288 138.834)" fill="#4EF5E7"/>
<circle cx="3.92945" cy="3.92945" r="3.92945" transform="matrix(1 0 0 -1 113.141 138.834)" fill="#4EF5E7"/>
<circle cx="3.92945" cy="3.92945" r="3.92945" transform="matrix(1 0 0 -1 60 126.859)" fill="#4EF5E7"/>
<circle cx="3.92945" cy="3.92945" r="3.92945" transform="matrix(1 0 0 -1 70.8528 126.859)" fill="#4EF5E7"/>
<circle cx="3.92945" cy="3.92945" r="3.92945" transform="matrix(1 0 0 -1 81.7055 126.859)" fill="#4EF5E7"/>
<circle cx="3.92945" cy="3.92945" r="3.92945" transform="matrix(1 0 0 -1 91.4356 126.859)" fill="#4EF5E7"/>
<circle cx="3.92945" cy="3.92945" r="3.92945" transform="matrix(1 0 0 -1 102.288 126.859)" fill="#4EF5E7"/>
<circle cx="3.92945" cy="3.92945" r="3.92945" transform="matrix(1 0 0 -1 113.141 126.859)" fill="#4EF5E7"/>
</svg>
